<svg width="28" height="28" viewBox="0 0 28 28" fill="none" xmlns="http://www.w3.org/2000/svg">
<g clip-path="url(#clip0_2484_1524)">
<path d="M12.8345 27.9648C9.44014 27.9648 6.18483 26.6164 3.78468 24.2163C1.38452 21.8161 0.0361328 18.5608 0.0361328 15.1665C0.0361328 11.7722 1.38452 8.51686 3.78468 6.11671C6.18483 3.71656 9.44014 2.36816 12.8345 2.36816H14.0011L14.0163 3.53483L14.0011 13.9998H25.6328V15.1665C25.6291 18.5597 24.2795 21.8128 21.8802 24.2122C19.4808 26.6115 16.2277 27.9611 12.8345 27.9648ZM11.6818 4.76566C9.72293 4.98294 7.86523 5.74896 6.32255 6.97555C4.77986 8.20215 3.61492 9.83944 2.9618 11.699C2.30868 13.5585 2.19395 15.5646 2.63081 17.4865C3.06767 19.4084 4.03836 21.1678 5.43114 22.5623C6.82392 23.9567 8.58218 24.9296 10.5035 25.3687C12.4248 25.8079 14.4311 25.6956 16.2914 25.0448C18.1518 24.3939 19.7905 23.2309 21.0189 21.6897C22.2474 20.1485 23.0157 18.2918 23.2353 16.3332H11.6678L11.6818 4.76566Z" fill="white"/>
<path d="M18.6878 2.66873C20.2904 3.08799 21.7525 3.92622 22.9241 5.09735C24.0956 6.26848 24.9343 7.7303 25.3542 9.33273H18.6878V2.66873ZM16.3545 0.0390625V11.6661H27.9838C27.9688 8.58662 26.7387 5.63762 24.5609 3.46032C22.3832 1.28302 19.4339 0.0534777 16.3545 0.0390625Z" fill="white"/>
</g>
<defs>
<clipPath id="clip0_2484_1524">
<rect width="28" height="28" fill="white"/>
</clipPath>
</defs>
</svg>
