<svg width="27" height="31" viewBox="0 0 27 31" fill="none" xmlns="http://www.w3.org/2000/svg">
<path d="M17.668 14.7109C18.2201 14.7112 18.668 15.1588 18.668 15.7109C18.668 16.2631 18.2201 16.7107 17.668 16.7109H7.94531C7.39303 16.7109 6.94531 16.2632 6.94531 15.7109C6.94531 15.1587 7.39303 14.7109 7.94531 14.7109H17.668Z" fill="white"/>
<path d="M14.0286 20.4805C14.5809 20.4805 15.0286 20.9282 15.0286 21.4805C15.0286 22.0328 14.5809 22.4805 14.0286 22.4805H7.94531C7.39303 22.4805 6.94531 22.0328 6.94531 21.4805C6.94531 20.9282 7.39303 20.4805 7.94531 20.4805H14.0286Z" fill="white"/>
<path d="M18.056 3.8845C18.0559 2.56274 17.7358 2.26306 17.6198 2.18268C17.4587 2.07117 17.2243 2.02476 16.7878 2.0082L16.2786 2.00039H10.7227C9.94182 2.0004 9.59759 2.03423 9.38281 2.18268C9.26701 2.26285 8.94539 2.56197 8.94531 3.8845C8.94531 5.20714 9.26693 5.50606 9.38281 5.58633C9.59756 5.735 9.94136 5.76991 10.7227 5.76992H16.2786C17.5199 5.76992 17.7884 5.45085 17.8672 5.32851C18.0248 5.08299 18.056 4.69103 18.056 3.8845ZM20.056 3.8845C20.056 4.52019 20.0874 5.5718 19.5508 6.40794C18.9346 7.36781 17.8131 7.76992 16.2786 7.76992H10.7227C10.1154 7.76994 9.07143 7.80299 8.24479 7.23086C7.31894 6.58988 6.94531 5.44616 6.94531 3.8845C6.94539 2.32311 7.31904 1.17906 8.24479 0.53815C9.07136 -0.0336491 10.1155 0.000373219 10.7227 0.000389412H16.2786L16.806 0.00429566C17.3947 0.0215534 18.1377 0.108914 18.7578 0.53815C19.6836 1.17906 20.0559 2.32311 20.056 3.8845Z" fill="white"/>
<path d="M0 21.193V12.5394C7.09083e-08 9.17643 0.584215 6.77423 1.99089 5.193C3.41697 3.59011 5.48934 3.05035 7.88802 2.91566C8.43944 2.88471 8.91176 3.30695 8.94271 3.85837C8.97364 4.40977 8.5514 4.8821 8 4.91306C5.77423 5.03806 4.37412 5.52227 3.48438 6.52243C2.5752 7.54461 2 9.32563 2 12.5394V21.193C2 24.0641 2.36267 25.895 3.32682 27.0394C4.25307 28.1386 5.95655 28.8467 9.33333 28.8467H17.6667C21.0434 28.8466 22.7469 28.1386 23.6732 27.0394C24.6373 25.895 25 24.0641 25 21.193V12.5394C25 9.31749 24.4242 7.53714 23.5156 6.51722C22.6265 5.51922 21.2274 5.03815 19 4.91306C18.4486 4.8821 18.0264 4.40977 18.0573 3.85837C18.0882 3.30695 18.5606 2.88471 19.112 2.91566C21.5091 3.05026 23.5824 3.5863 25.0091 5.1878C26.4162 6.76764 27 9.17018 27 12.5394V21.193C27 24.0911 26.6681 26.5882 25.2018 28.3284C23.6975 30.1134 21.234 30.8466 17.6667 30.8466H9.33333C5.76599 30.8466 3.30253 30.1134 1.79818 28.3284C0.331856 26.5882 0 24.0911 0 21.193Z" fill="white"/>
</svg>
