<svg width="30" height="28" viewBox="0 0 30 28" fill="none" xmlns="http://www.w3.org/2000/svg">
<path d="M20.7778 11.7122C16.0612 11.7122 12.2222 15.3755 12.2222 19.8788C12.2222 24.3565 16.0612 28 20.7778 28C25.4943 28 29.3333 24.3367 29.3333 19.8333C29.3333 15.3557 25.4943 11.7122 20.7778 11.7122ZM20.7778 25.6667C17.4081 25.6667 14.6667 23.0697 14.6667 19.8788C14.6667 16.6623 17.4081 14.0455 20.7778 14.0455C24.1474 14.0455 26.8889 16.6425 26.8889 19.8333C26.8889 23.0498 24.1474 25.6667 20.7778 25.6667ZM22.8641 20.1752C23.342 20.6313 23.342 21.3687 22.8641 21.8248C22.6258 22.0523 22.3129 22.1667 22 22.1667C21.6871 22.1667 21.3742 22.0523 21.1359 21.8248L19.9137 20.6582C19.6839 20.4388 19.5556 20.1425 19.5556 19.8333V17.5C19.5556 16.856 20.1019 16.3333 20.7778 16.3333C21.4537 16.3333 22 16.856 22 17.5V19.3503L22.8641 20.1752ZM29.3333 8.16667V10.5C29.3333 11.144 28.787 11.6667 28.1111 11.6667C27.4352 11.6667 26.8889 11.144 26.8889 10.5V8.16667C26.8889 6.237 25.2438 4.66667 23.2222 4.66667H6.11111C4.08956 4.66667 2.44444 6.237 2.44444 8.16667V9.33333H13.4444C14.1191 9.33333 14.6667 9.856 14.6667 10.5C14.6667 11.144 14.1191 11.6667 13.4444 11.6667H2.44444V22.1667C2.44444 24.0963 4.08956 25.6667 6.11111 25.6667H11C11.6747 25.6667 12.2222 26.1893 12.2222 26.8333C12.2222 27.4773 11.6747 28 11 28H6.11111C2.74144 28 0 25.3832 0 22.1667V8.16667C0 4.95017 2.74144 2.33333 6.11111 2.33333H7.33333V1.16667C7.33333 0.522667 7.88089 0 8.55556 0C9.23022 0 9.77778 0.522667 9.77778 1.16667V2.33333H19.5556V1.16667C19.5556 0.522667 20.1019 0 20.7778 0C21.4537 0 22 0.522667 22 1.16667V2.33333H23.2222C26.5919 2.33333 29.3333 4.95017 29.3333 8.16667Z" fill="#858D9D"/>
</svg>
