<svg width="21" height="13" viewBox="0 0 21 13" fill="none" xmlns="http://www.w3.org/2000/svg">
<path d="M1.58649 0H19.3981C19.7132 0.0013211 20.0208 0.0960426 20.2821 0.272188C20.5433 0.448333 20.7465 0.697991 20.8659 0.989593C20.9852 1.28119 21.0155 1.60164 20.9527 1.91042C20.89 2.2192 20.7371 2.50243 20.5133 2.72432L11.6235 11.6142C11.4754 11.7635 11.2991 11.882 11.105 11.9629C10.9109 12.0438 10.7026 12.0854 10.4923 12.0854C10.282 12.0854 10.0738 12.0438 9.87961 11.9629C9.68547 11.882 9.50926 11.7635 9.36116 11.6142L0.471272 2.72432C0.247556 2.50243 0.0946582 2.2192 0.0319109 1.91042C-0.0308364 1.60164 -0.000615153 1.28119 0.118754 0.989593C0.238123 0.697991 0.441279 0.448333 0.702533 0.272188C0.963787 0.0960426 1.2714 0.0013211 1.58649 0Z" fill="#858D9D"/>
</svg>
