<svg width="32" height="32" viewBox="0 0 32 32" fill="none" xmlns="http://www.w3.org/2000/svg">
<path d="M26.6003 7.38667L21.947 2.73333C20.187 0.973333 17.8403 0 15.347 0H9.33366C5.65366 0 2.66699 2.98667 2.66699 6.66667V25.3333C2.66699 29.0133 5.65366 32 9.33366 32H22.667C26.347 32 29.3337 29.0133 29.3337 25.3333V13.9867C29.3337 11.4933 28.3603 9.14667 26.6003 7.38667ZM24.7203 9.26667C25.147 9.69333 25.507 10.16 25.8003 10.6667H20.0137C19.2803 10.6667 18.6803 10.0667 18.6803 9.33333V3.54667C19.187 3.84 19.6537 4.2 20.0803 4.62667L24.7337 9.28L24.7203 9.26667ZM26.667 25.3333C26.667 27.5333 24.867 29.3333 22.667 29.3333H9.33366C7.13366 29.3333 5.33366 27.5333 5.33366 25.3333V6.66667C5.33366 4.46667 7.13366 2.66667 9.33366 2.66667H15.347C15.5603 2.66667 15.787 2.66667 16.0003 2.69333V9.33333C16.0003 11.5333 17.8003 13.3333 20.0003 13.3333H26.6403C26.667 13.5467 26.667 13.76 26.667 13.9867V25.3333ZM9.45366 17.3333H8.00033C7.26699 17.3333 6.66699 17.9333 6.66699 18.6667V24.5867C6.66699 25.0533 7.04033 25.4133 7.49366 25.4133C7.94699 25.4133 8.32033 25.04 8.32033 24.5867V22.96H9.44033C11.0137 22.96 12.2937 21.6933 12.2937 20.1467C12.2937 18.6 11.0137 17.3333 9.44033 17.3333H9.45366ZM9.45366 21.2933H8.34699V19H9.46699C10.107 19 10.6537 19.52 10.6537 20.1467C10.6537 20.7733 10.107 21.2933 9.46699 21.2933H9.45366ZM25.3603 18.1733C25.3603 18.64 24.987 19 24.5337 19H22.2803V20.52H23.9337C24.4003 20.52 24.7603 20.8933 24.7603 21.3467C24.7603 21.8 24.387 22.1733 23.9337 22.1733H22.2803V24.5733C22.2803 25.04 21.907 25.4 21.4537 25.4C21.0003 25.4 20.627 25.0267 20.627 24.5733V18.16C20.627 17.6933 21.0003 17.3333 21.4537 17.3333H24.5337C25.0003 17.3333 25.3603 17.7067 25.3603 18.16V18.1733ZM16.1203 17.3467H14.667C13.9337 17.3467 13.3337 17.9467 13.3337 18.68V24.6C13.3337 25.0667 13.707 25.3467 14.1603 25.3467C14.6137 25.3467 16.107 25.3467 16.107 25.3467C17.6803 25.3467 18.9603 24.08 18.9603 22.5333V20.16C18.9603 18.6133 17.6803 17.3467 16.107 17.3467H16.1203ZM17.307 22.5333C17.307 23.16 16.7603 23.68 16.1203 23.68H15.0137V19.0133H16.1337C16.7737 19.0133 17.3203 19.5333 17.3203 20.16V22.5333H17.307Z" fill="white"/>
</svg>
