<svg width="19" height="20" viewBox="0 0 19 20" fill="none" xmlns="http://www.w3.org/2000/svg">
<path d="M6.76823 0C9.38257 0 11.5062 2.12272 11.5065 4.73698V4.74089C11.4956 7.29709 9.4802 9.38068 6.9375 9.46615C6.90805 9.46711 6.87827 9.46517 6.84896 9.46224C6.8033 9.4577 6.73583 9.45785 6.67318 9.46354C6.64592 9.46601 6.6185 9.46704 6.59115 9.46615C4.04878 9.38069 2.03125 7.29605 2.03125 4.73698C2.0316 2.12392 4.14405 0.000351077 6.76823 0ZM3.36458 4.73698C3.36458 6.5763 4.8093 8.06625 6.6276 8.13151C6.7182 8.12625 6.81209 8.12616 6.90234 8.13151C8.71883 8.0656 10.1644 6.57751 10.1732 4.73698L10.1549 4.38932C9.98012 2.67439 8.52881 1.33333 6.76823 1.33333C4.88238 1.33368 3.36493 2.85834 3.36458 4.73698Z" fill="#FF8D58"/>
<path d="M16.0998 5.70833C16.0998 4.30589 14.9672 3.16569 13.5582 3.16536C13.19 3.16536 12.8915 2.86689 12.8915 2.4987C12.8915 2.13051 13.19 1.83203 13.5582 1.83203C15.7061 1.83235 17.4332 3.572 17.4332 5.70833C17.4329 7.8014 15.7721 9.50582 13.7014 9.58333C13.6657 9.58465 13.63 9.58253 13.5946 9.57812C13.5792 9.57619 13.5491 9.57541 13.5126 9.57943C13.1468 9.62007 12.8165 9.35664 12.7756 8.99089C12.735 8.62513 12.9985 8.29483 13.3642 8.25391C13.4626 8.24296 13.5658 8.24215 13.6675 8.2487C15.0183 8.18982 16.0996 7.07528 16.0998 5.70833Z" fill="#FF8D58"/>
<path d="M6.92708 10.2559C8.69073 10.2559 10.4876 10.699 11.8763 11.6257H11.8776C13.1262 12.4563 13.8398 13.62 13.8398 14.8691C13.8396 16.1174 13.1272 17.2816 11.8802 18.1165H11.8789C10.4856 19.0487 8.68475 19.4954 6.91927 19.4954C5.15403 19.4954 3.3541 19.0486 1.96094 18.1165V18.1178C0.712736 17.2872 7.99512e-05 16.1245 0 14.8757C0 13.627 0.712258 12.4621 1.95964 11.627L1.96224 11.6257C3.35948 10.6992 5.16211 10.2559 6.92708 10.2559ZM6.92708 11.5892C5.36479 11.5892 3.83366 11.9832 2.70052 12.7337C1.72934 13.3839 1.33333 14.1738 1.33333 14.8757C1.33341 15.5771 1.73037 16.363 2.70052 17.0085H2.70182C3.82977 17.7632 5.35672 18.162 6.91927 18.1621C8.48201 18.1621 10.0099 17.7633 11.138 17.0085L11.3138 16.8861C12.1575 16.2613 12.5063 15.5271 12.5065 14.8691C12.5065 14.1676 12.1096 13.3818 11.1393 12.7363L11.138 12.735C10.015 11.9852 8.49023 11.5893 6.92708 11.5892Z" fill="#FF8D58"/>
<path d="M15.5069 11.0184C16.2272 11.1808 16.9334 11.4699 17.529 11.9234L17.6866 12.0471C18.4476 12.6805 18.8689 13.5257 18.8689 14.4143C18.8689 15.3621 18.3888 16.2603 17.529 16.9052L17.5277 16.9039C16.9248 17.365 16.2086 17.6675 15.4678 17.8218C15.1075 17.8966 14.7551 17.6652 14.6801 17.3049C14.6053 16.9446 14.8367 16.5922 15.197 16.5171C15.7736 16.3969 16.3005 16.1671 16.723 15.8427L16.7295 15.8387C17.3001 15.4108 17.5355 14.8875 17.5355 14.4143C17.5355 13.941 17.3001 13.4177 16.7295 12.9898L16.7243 12.9872C16.3127 12.6728 15.7932 12.4485 15.2139 12.3179C14.8547 12.237 14.6291 11.8802 14.71 11.521C14.7912 11.1622 15.1479 10.9375 15.5069 11.0184Z" fill="#FF8D58"/>
</svg>
