<svg width="31" height="31" viewBox="0 0 31 31" fill="none" xmlns="http://www.w3.org/2000/svg">
<path d="M14.7312 28.1112H13.3782C8.27596 28.1112 5.72483 28.1112 4.13976 26.6142C2.55469 25.1172 2.55469 22.7078 2.55469 17.889L2.55469 12.7779C2.55469 7.95908 2.55469 5.54968 4.13976 4.05267C5.72483 2.55566 8.27596 2.55566 13.3782 2.55566L14.7312 2.55566C19.8334 2.55566 22.3846 2.55566 23.9696 4.05267C25.5547 5.54968 25.5547 7.95909 25.5547 12.7779V13.4168" stroke="white" stroke-width="1.86667" stroke-linecap="round"/>
<path d="M8.94531 8.94434H19.1675" stroke="white" stroke-width="2" stroke-linecap="round"/>
<path d="M8.94531 15.333H15.3342" stroke="white" stroke-width="2" stroke-linecap="round"/>
<path d="M22.9998 26.4675V28.1104M22.9998 26.4675C21.5217 26.4675 20.2194 25.7415 19.4556 24.639M22.9998 26.4675C24.4779 26.4675 25.7802 25.7415 26.5439 24.639M22.9998 18.2532C24.478 18.2532 25.7803 18.9794 26.5441 20.0819M22.9998 18.2532C21.5216 18.2532 20.2192 18.9794 19.4555 20.0819M22.9998 18.2532V16.6104M28.1109 19.0746L26.5441 20.0819M17.8892 25.6461L19.4556 24.639M17.8887 19.0746L19.4555 20.0819M28.1104 25.6461L26.5439 24.639M26.5441 20.0819C26.9957 20.7339 27.259 21.5175 27.259 22.3604C27.259 23.2033 26.9957 23.987 26.5439 24.639M19.4555 20.0819C19.0038 20.7339 18.7405 21.5175 18.7405 22.3604C18.7405 23.2033 19.0039 23.987 19.4556 24.639" stroke="white" stroke-width="2" stroke-linecap="round"/>
</svg>
