<svg width="26" height="27" viewBox="0 0 26 27" fill="none" xmlns="http://www.w3.org/2000/svg">
<path d="M0.872879 16.6007C0.610335 18.3218 1.78414 19.5164 3.22131 20.1118C8.73118 22.3944 16.3987 22.3944 21.9085 20.1118C23.3458 19.5164 24.5195 18.3218 24.2571 16.6007C24.0957 15.543 23.2979 14.6622 22.7067 13.8022C21.9325 12.6619 21.8556 11.418 21.8554 10.0947C21.8554 4.98069 17.696 0.834961 12.565 0.834961C7.43398 0.834961 3.2745 4.98069 3.2745 10.0947C3.27438 11.418 3.19745 12.6619 2.4232 13.8022C1.83209 14.6622 1.03423 15.543 0.872879 16.6007Z" stroke="#161616" stroke-width="1.67" stroke-linecap="round" stroke-linejoin="round"/>
<path d="M7.63281 22.0703C8.19888 24.2003 10.1953 25.7742 12.5713 25.7742C14.9474 25.7742 16.9438 24.2003 17.5099 22.0703" stroke="#161616" stroke-width="1.67" stroke-linecap="round" stroke-linejoin="round"/>
<circle cx="21.2511" cy="5.51773" r="3.42039" fill="#FE5E15" stroke="#FAFBFF" stroke-width="1.33333"/>
</svg>
