<svg width="28" height="26" viewBox="0 0 28 26" fill="none" xmlns="http://www.w3.org/2000/svg">
<g clip-path="url(#clip0_405_1433)">
<path d="M1.53418 10.8994L1.47168 10.9561C1.24337 11.1765 1.05894 11.43 0.931641 11.708C0.792978 12.011 0.721692 12.3351 0.72168 12.6621C0.72168 12.9892 0.792861 13.3141 0.931641 13.6172C1.07043 13.9202 1.27436 14.1964 1.53223 14.4297L7.21875 19.5732L8.66992 18.2607L3.76172 13.8213L3.50488 13.5889H20.1475V11.7441H3.50488L3.76172 11.5117L8.66992 7.07129L7.21973 5.75391L1.53418 10.8994Z" fill="#FF8D58" stroke="#16266F" stroke-width="0.266667"/>
<path d="M24.5 0.133789H16.9443C16.0476 0.133868 15.1901 0.456008 14.5596 1.02637C13.9294 1.5965 13.5781 2.36705 13.5781 3.16699V8.66309H15.6445V3.16699C15.6445 2.84713 15.7852 2.54298 16.0303 2.32129C16.2748 2.10011 16.6038 1.97762 16.9443 1.97754H24.5C24.8406 1.97754 25.1695 2.10014 25.4141 2.32129C25.6591 2.54298 25.7998 2.84713 25.7998 3.16699V22.167C25.7997 22.4867 25.659 22.7901 25.4141 23.0117C25.1695 23.233 24.8407 23.3555 24.5 23.3555H16.9443C16.6037 23.3554 16.2748 23.2329 16.0303 23.0117C15.7854 22.7901 15.6446 22.4867 15.6445 22.167V16.6709H13.5781V22.167C13.5782 22.9668 13.9295 23.7366 14.5596 24.3066C15.1901 24.8771 16.0475 25.2001 16.9443 25.2002H24.5C25.397 25.2002 26.2552 24.8772 26.8857 24.3066C27.5156 23.7366 27.8661 22.9667 27.8662 22.167V3.16699C27.8662 2.36713 27.5158 1.59648 26.8857 1.02637C26.2552 0.455838 25.397 0.133789 24.5 0.133789Z" fill="#FF8D58" stroke="#16266F" stroke-width="0.266667"/>
</g>
<defs>
<clipPath id="clip0_405_1433">
<rect width="28" height="25.3333" fill="white" transform="matrix(-1 0 0 1 28 0)"/>
</clipPath>
</defs>
</svg>
