<svg width="34" height="34" viewBox="0 0 34 34" fill="none" xmlns="http://www.w3.org/2000/svg">
<path d="M16.6658 17.7076C12.263 17.7076 8.67969 14.1242 8.67969 9.72146C8.67969 5.31869 12.263 1.73535 16.6658 1.73535C21.0686 1.73535 24.6519 5.31869 24.6519 9.72146C24.6519 14.1242 21.0686 17.7076 16.6658 17.7076ZM16.6658 3.81869C13.4158 3.81869 10.763 6.47146 10.763 9.72146C10.763 12.9715 13.4158 15.6242 16.6658 15.6242C19.9158 15.6242 22.5686 12.9715 22.5686 9.72146C22.5686 6.47146 19.9158 3.81869 16.6658 3.81869Z" fill="white"/>
<path d="M28.5981 31.5975C28.0286 31.5975 27.5564 31.1253 27.5564 30.5559C27.5564 25.7642 22.6675 21.8753 16.6675 21.8753C10.6675 21.8753 5.77865 25.7642 5.77865 30.5559C5.77865 31.1253 5.30642 31.5975 4.73698 31.5975C4.16753 31.5975 3.69531 31.1253 3.69531 30.5559C3.69531 24.6253 9.51475 19.792 16.6675 19.792C23.8203 19.792 29.6397 24.6253 29.6397 30.5559C29.6397 31.1253 29.1675 31.5975 28.5981 31.5975Z" fill="white"/>
</svg>
