<svg width="20" height="20" viewBox="0 0 20 20" fill="none" xmlns="http://www.w3.org/2000/svg">
<path d="M8.33345 19.8672V20H4.16672V19.8672H8.33345ZM9.03398 19.1667C9.03398 18.7796 8.7199 18.4661 8.33345 18.4661H4.16672C2.71474 18.4661 1.53387 17.2853 1.53387 15.8333V4.16667C1.53387 2.7147 2.71474 1.53387 4.16672 1.53385V1.66667C2.78837 1.66668 1.66669 2.78834 1.66669 4.16667V15.8333C1.66669 17.2117 2.78837 18.3333 4.16672 18.3333H8.33345C8.79345 18.3333 9.16679 18.7058 9.16679 19.1667C9.16679 19.6275 8.79345 20 8.33345 20V19.8672C8.7199 19.8672 9.03398 19.5538 9.03398 19.1667ZM18.581 13.3711C18.9092 13.0469 19.4349 13.0495 19.7581 13.3763C20.0821 13.7037 20.0805 14.2305 19.7542 14.5547L14.9182 19.3464L14.7476 19.4987C14.3363 19.831 13.8314 19.9961 13.3283 19.9961V19.8633C13.87 19.8633 14.4132 19.6594 14.8244 19.2513L19.6604 14.4596C19.9342 14.1873 19.9365 13.745 19.6643 13.4701C19.3932 13.1954 18.951 13.1932 18.6747 13.4661L13.8387 18.2578C13.5934 18.5026 13.2136 18.5316 12.9351 18.3516L12.8218 18.2604L10.491 15.9622C10.2159 15.6918 9.7729 15.6951 9.50143 15.9701C9.23105 16.2452 9.23431 16.6882 9.50924 16.9596L11.84 19.2591L12.0002 19.401C12.385 19.7091 12.8545 19.8632 13.3283 19.8633V19.9961C12.7534 19.996 12.1829 19.7824 11.7463 19.3542L9.41549 17.0547C9.08814 16.7315 9.08434 16.2038 9.40638 15.8763C9.7296 15.5489 10.2572 15.5451 10.5848 15.8672L12.9155 18.1654C13.1439 18.3895 13.5166 18.3911 13.745 18.1628L18.581 13.3711ZM5.00007 15.7005V15.8333H4.16672V15.7005H5.00007ZM5.7006 15C5.7006 14.6129 5.38652 14.2995 5.00007 14.2995H4.16672C3.78028 14.2995 3.46619 14.6129 3.46619 15C3.46619 15.3871 3.78028 15.7005 4.16672 15.7005V15.8333C3.70672 15.8333 3.33338 15.4608 3.33338 15C3.33338 14.5392 3.70672 14.1667 4.16672 14.1667H5.00007C5.46008 14.1667 5.83341 14.5392 5.83341 15C5.83341 15.4608 5.46008 15.8333 5.00007 15.8333V15.7005C5.38652 15.7005 5.7006 15.3871 5.7006 15ZM11.6668 14.1667V4.16667C11.6668 2.78833 10.5451 1.66667 9.16679 1.66667V1.53385C10.6188 1.53385 11.7996 2.71469 11.7996 4.16667V14.1667C11.7996 14.5538 12.113 14.8672 12.5002 14.8672V15C12.0394 15 11.6668 14.6275 11.6668 14.1667ZM13.2007 14.1667V4.16667C13.2007 1.94281 11.3907 0.132812 9.16679 0.132812H4.16672C1.94283 0.132823 0.132814 1.94281 0.132814 4.16667V15.8333C0.132814 18.0572 1.94283 19.8672 4.16672 19.8672V20C1.86919 20 0 18.1308 0 15.8333V4.16667C0 1.86917 1.86919 1.09915e-05 4.16672 0H9.16679C11.4643 0 13.3335 1.86917 13.3335 4.16667V14.1667C13.3335 14.6275 12.961 15 12.5002 15V14.8672C12.8874 14.8672 13.2007 14.5539 13.2007 14.1667ZM5.00007 12.3672V12.5H4.16672V12.3672H5.00007ZM5.7006 11.6667C5.7006 11.2796 5.38652 10.9661 5.00007 10.9661H4.16672C3.78028 10.9662 3.46619 11.2796 3.46619 11.6667C3.46619 12.0538 3.78028 12.3672 4.16672 12.3672V12.5C3.70672 12.5 3.33338 12.1275 3.33338 11.6667C3.33338 11.2058 3.70672 10.8333 4.16672 10.8333H5.00007C5.46008 10.8333 5.83341 11.2058 5.83341 11.6667C5.83341 12.1275 5.46008 12.5 5.00007 12.5V12.3672C5.38652 12.3672 5.7006 12.0538 5.7006 11.6667ZM9.16679 12.3672V12.5H8.33345V12.3672H9.16679ZM9.86732 11.6667C9.86732 11.2796 9.55325 10.9661 9.16679 10.9661H8.33345C7.94701 10.9662 7.63292 11.2796 7.63292 11.6667C7.63292 12.0538 7.94701 12.3672 8.33345 12.3672V12.5C7.87346 12.5 7.5001 12.1275 7.5001 11.6667C7.5001 11.2058 7.87346 10.8334 8.33345 10.8333H9.16679C9.6268 10.8333 10.0001 11.2058 10.0001 11.6667C10.0001 12.1275 9.6268 12.5 9.16679 12.5V12.3672C9.55325 12.3672 9.86732 12.0538 9.86732 11.6667ZM5.00007 9.03385V9.16667H4.16672V9.03385H5.00007ZM5.7006 8.33333C5.7006 7.94623 5.38652 7.63281 5.00007 7.63281H4.16672C3.78028 7.63282 3.46619 7.94623 3.46619 8.33333C3.46619 8.72044 3.78028 9.03384 4.16672 9.03385V9.16667C3.70672 9.16666 3.33338 8.79416 3.33338 8.33333C3.33338 7.87251 3.70672 7.50001 4.16672 7.5H5.00007C5.46008 7.5 5.83341 7.8725 5.83341 8.33333C5.83341 8.79417 5.46008 9.16667 5.00007 9.16667V9.03385C5.38652 9.03385 5.7006 8.72044 5.7006 8.33333ZM9.16679 9.03385V9.16667H8.33345V9.03385H9.16679ZM9.86732 8.33333C9.86732 7.94623 9.55325 7.63281 9.16679 7.63281H8.33345C7.94701 7.63283 7.63292 7.94624 7.63292 8.33333C7.63292 8.72043 7.94701 9.03383 8.33345 9.03385V9.16667C7.87346 9.16665 7.5001 8.79415 7.5001 8.33333C7.5001 7.87251 7.87346 7.50002 8.33345 7.5H9.16679C9.6268 7.5 10.0001 7.8725 10.0001 8.33333C10.0001 8.79417 9.6268 9.16667 9.16679 9.16667V9.03385C9.55325 9.03385 9.86732 8.72044 9.86732 8.33333ZM5.00007 5.70052V5.83333H4.16672V5.70052H5.00007ZM5.7006 5C5.7006 4.61289 5.38652 4.29948 5.00007 4.29948H4.16672C3.78028 4.29949 3.46619 4.6129 3.46619 5C3.46619 5.3871 3.78028 5.70051 4.16672 5.70052V5.83333C3.70672 5.83332 3.33338 5.46083 3.33338 5C3.33338 4.53917 3.70672 4.16668 4.16672 4.16667H5.00007C5.46008 4.16667 5.83341 4.53917 5.83341 5C5.83341 5.46083 5.46008 5.83333 5.00007 5.83333V5.70052C5.38652 5.70052 5.7006 5.38711 5.7006 5ZM9.16679 5.70052V5.83333H8.33345V5.70052H9.16679ZM9.86732 5C9.86732 4.61289 9.55325 4.29948 9.16679 4.29948H8.33345C7.94701 4.2995 7.63292 4.61291 7.63292 5C7.63292 5.38709 7.94701 5.7005 8.33345 5.70052V5.83333C7.87346 5.83331 7.5001 5.46082 7.5001 5C7.5001 4.53918 7.87346 4.16669 8.33345 4.16667H9.16679C9.6268 4.16667 10.0001 4.53917 10.0001 5C10.0001 5.46083 9.6268 5.83333 9.16679 5.83333V5.70052C9.55325 5.70052 9.86732 5.38711 9.86732 5ZM9.16679 1.53385V1.66667H4.16672V1.53385H9.16679Z" fill="#16266F"/>
</svg>
