<svg width="28" height="28" viewBox="0 0 28 28" fill="none" xmlns="http://www.w3.org/2000/svg">
<path d="M0 22.0664V5.39974C0 2.42216 2.42216 0 5.39974 0V0.39974L5.14323 0.40625C2.50525 0.540254 0.39974 2.72909 0.39974 5.39974V22.0664L0.40625 22.3229C0.535938 24.8759 2.59022 26.9302 5.14323 27.0599L5.39974 27.0664H10.9557L11.0677 27.0547C11.3205 27.0026 11.5104 26.7786 11.5104 26.5104C11.5102 26.2424 11.3205 26.0181 11.0677 25.9661L10.9557 25.9557V25.5547C11.483 25.5549 11.9112 25.9832 11.9115 26.5104C11.9115 27.0379 11.4831 27.4659 10.9557 27.4661H5.39974C2.42216 27.4661 2.80187e-07 25.044 0 22.0664ZM13.3333 23.7331V19.2891C13.3333 17.3551 14.8109 15.7591 16.6966 15.5729C16.8823 14.3074 17.9726 13.3333 19.2891 13.3333V13.7331C18.0635 13.7331 17.0664 14.7302 17.0664 15.9557C15.2286 15.9557 13.7331 17.4513 13.7331 19.2891V23.7331L13.75 24.0729C13.9094 25.64 15.1595 26.89 16.7266 27.0495L17.0664 27.0664H23.7331C25.4562 27.0664 26.8787 25.7517 27.0495 24.0729L27.0664 23.7331V19.2891C27.0664 17.4513 25.5709 15.9557 23.7331 15.9557C23.7331 14.807 22.8574 13.859 21.7383 13.7448L21.5104 13.7331V13.3333C22.8268 13.3333 23.9158 14.3075 24.1016 15.5729C25.9879 15.7585 27.4661 17.3547 27.4661 19.2891V23.7331C27.4661 25.7918 25.7918 27.4661 23.7331 27.4661H17.0664C15.0077 27.4661 13.3333 25.7918 13.3333 23.7331ZM10.9557 25.5547V25.9557H5.39974V25.5547H10.9557ZM23.7331 25.5547V25.9557H17.0664V25.5547H23.7331ZM19.444 23.1771V21.9115H15.2448V23.7331C15.2448 24.7377 16.0618 25.5547 17.0664 25.5547V25.9557L16.8398 25.944C15.7948 25.8378 14.9617 25.0046 14.8555 23.9596L14.8438 23.7331V21.5104H19.8438V23.1771C19.8438 23.4454 20.0347 23.6695 20.2878 23.7214L20.3997 23.7331C20.6682 23.7331 20.8923 23.5423 20.944 23.2891L20.9557 23.1771V21.5104H25.9557V23.7331L25.944 23.9596C25.8378 25.0046 25.0046 25.8378 23.9596 25.944L23.7331 25.9557V25.5547C24.7377 25.5547 25.5547 24.7377 25.5547 23.7331V21.9115H21.3555V23.1771C21.3555 23.7047 20.9273 24.1328 20.3997 24.1328C19.8722 24.1328 19.444 23.7047 19.444 23.1771ZM4.44401 19.8438C4.44424 19.3164 4.8723 18.888 5.39974 18.888V19.2891L5.28776 19.2995C5.0348 19.3513 4.84396 19.5756 4.84375 19.8438C4.84375 20.112 5.03475 20.3361 5.28776 20.388L5.39974 20.3997H7.6224L7.73438 20.388C7.98718 20.336 8.17708 20.1119 8.17708 19.8438C8.17688 19.5757 7.98713 19.3514 7.73438 19.2995L7.6224 19.2891V18.888C8.14963 18.8883 8.57789 19.3165 8.57812 19.8438C8.57812 20.3712 8.14978 20.7992 7.6224 20.7995H5.39974C4.87216 20.7995 4.44401 20.3713 4.44401 19.8438ZM25.5547 19.2891C25.5547 18.2844 24.7377 17.4661 23.7331 17.4661H17.0664C16.0618 17.4661 15.2448 18.2844 15.2448 19.2891V20H25.5547V19.2891ZM7.6224 18.888V19.2891H5.39974V18.888H7.6224ZM4.44401 15.3997C4.44401 14.8722 4.87216 14.444 5.39974 14.444V14.8438L5.28776 14.8555C5.03471 14.9073 4.84375 15.1314 4.84375 15.3997L4.85547 15.5117C4.89991 15.7286 5.07088 15.8996 5.28776 15.944L5.39974 15.9557H7.6224L7.73438 15.944C7.95109 15.8994 8.12228 15.7285 8.16667 15.5117L8.17708 15.3997C8.17708 15.1316 7.98722 14.9075 7.73438 14.8555L7.6224 14.8438V14.444C8.14978 14.4442 8.57812 14.8723 8.57812 15.3997C8.57812 15.9272 8.14978 16.3552 7.6224 16.3555H5.39974C4.87216 16.3555 4.44401 15.9273 4.44401 15.3997ZM10 15.3997C10 14.8722 10.4281 14.444 10.9557 14.444V14.8438L10.8438 14.8555C10.5905 14.9072 10.3997 15.1313 10.3997 15.3997L10.4115 15.5117C10.456 15.7287 10.6267 15.8997 10.8438 15.944L10.9557 15.9557H13.1771L13.2891 15.944C13.5061 15.8997 13.6769 15.7287 13.7214 15.5117L13.7331 15.3997C13.7331 15.0931 13.4838 14.8438 13.1771 14.8438V14.444C13.7047 14.444 14.1328 14.8722 14.1328 15.3997C14.1328 15.9273 13.7047 16.3555 13.1771 16.3555H10.9557C10.4281 16.3555 10 15.9273 10 15.3997ZM21.5104 14.8438C22.1238 14.8438 22.6224 15.3424 22.6224 15.9557H18.1771C18.1771 15.3809 18.6147 14.9075 19.1745 14.8503L19.2891 14.8438H21.5104ZM19.2891 15.2448C19.0453 15.2448 18.83 15.3675 18.7018 15.5547H22.0977C21.9695 15.3675 21.7542 15.2448 21.5104 15.2448H19.2891ZM13.1771 14.444V14.8438H10.9557V14.444H13.1771ZM7.6224 14.444V14.8438H5.39974V14.444H7.6224ZM21.5104 13.3333V13.7331H19.2891V13.3333H21.5104ZM4.44401 10.9557C4.44401 10.4281 4.87216 10 5.39974 10V10.3997L5.28776 10.4115C5.03475 10.4633 4.84375 10.6874 4.84375 10.9557L4.85547 11.0677C4.90005 11.2844 5.07098 11.4556 5.28776 11.5L5.39974 11.5104H7.6224L7.73438 11.5C7.95099 11.4555 8.12214 11.2843 8.16667 11.0677L8.17708 10.9557C8.17708 10.6876 7.98718 10.4635 7.73438 10.4115L7.6224 10.3997V10C8.14978 10.0002 8.57812 10.4283 8.57812 10.9557C8.57789 11.483 8.14963 11.9112 7.6224 11.9115H5.39974C4.8723 11.9115 4.44425 11.4831 4.44401 10.9557ZM10 10.9557C10 10.4281 10.4281 10 10.9557 10V10.3997L10.8438 10.4115C10.5905 10.4632 10.3997 10.6873 10.3997 10.9557L10.4115 11.0677C10.4561 11.2845 10.6268 11.4558 10.8438 11.5L10.9557 11.5104H13.1771C13.4452 11.5104 13.6693 11.3205 13.7214 11.0677L13.7331 10.9557C13.7331 10.6873 13.5423 10.4632 13.2891 10.4115L13.1771 10.3997V10C13.7047 10 14.1328 10.4281 14.1328 10.9557C14.1326 11.4831 13.7045 11.9115 13.1771 11.9115H10.9557C10.4283 11.9115 10.0002 11.4831 10 10.9557ZM16.6667 10.9557V5.39974C16.6667 3.47621 15.1006 1.91146 13.1771 1.91146H5.39974C3.47621 1.91146 1.91146 3.47621 1.91146 5.39974V22.0664C1.91146 23.9899 3.47621 25.5547 5.39974 25.5547V25.9557L5.20052 25.9505C3.21428 25.8498 1.61632 24.2519 1.51562 22.2656L1.51042 22.0664V5.39974C1.51042 3.3221 3.14829 1.61966 5.20052 1.51562L5.39974 1.51042H13.1771C15.3215 1.51042 17.0664 3.2553 17.0664 5.39974V10.9557L17.0781 11.0677C17.1228 11.2845 17.2935 11.4558 17.5104 11.5L17.6224 11.5104C17.8904 11.5102 18.1147 11.3205 18.1667 11.0677L18.1771 10.9557V5.39974C18.1771 2.64307 15.9338 0.39974 13.1771 0.39974V0C16.1547 0 18.5781 2.42216 18.5781 5.39974V10.9557C18.5779 11.483 18.1496 11.9112 17.6224 11.9115C17.095 11.9115 16.6669 11.4831 16.6667 10.9557ZM13.1771 10V10.3997H10.9557V10H13.1771ZM7.6224 10V10.3997H5.39974V10H7.6224ZM4.44401 6.51042C4.44424 5.98304 4.8723 5.55469 5.39974 5.55469V5.95573L5.28776 5.96615C5.0348 6.01794 4.84396 6.24227 4.84375 6.51042C4.84375 6.7787 5.03475 7.0028 5.28776 7.05469L5.39974 7.06641H7.6224L7.73438 7.05469C7.98718 7.00264 8.17708 6.77855 8.17708 6.51042C8.17688 6.24241 7.98713 6.0181 7.73438 5.96615L7.6224 5.95573V5.55469C8.14963 5.55492 8.57789 5.98318 8.57812 6.51042C8.57812 7.03785 8.14978 7.46591 7.6224 7.46615H5.39974C4.87216 7.46615 4.44401 7.038 4.44401 6.51042ZM10 6.51042C10.0002 5.98304 10.4283 5.55469 10.9557 5.55469V5.95573L10.8438 5.96615C10.5906 6.01778 10.3999 6.24212 10.3997 6.51042L10.4115 6.6224C10.4558 6.83955 10.6266 7.01033 10.8438 7.05469L10.9557 7.06641H13.1771L13.2891 7.05469C13.5062 7.01033 13.677 6.83955 13.7214 6.6224L13.7331 6.51042C13.7329 6.24212 13.5422 6.01778 13.2891 5.96615L13.1771 5.95573V5.55469C13.7045 5.55469 14.1326 5.98304 14.1328 6.51042C14.1328 7.038 13.7047 7.46615 13.1771 7.46615H10.9557C10.4281 7.46615 10 7.038 10 6.51042ZM13.1771 5.55469V5.95573H10.9557V5.55469H13.1771ZM7.6224 5.55469V5.95573H5.39974V5.55469H7.6224ZM13.1771 0V0.39974H5.39974V0H13.1771ZM25.9557 20.3997H14.8438V19.2891C14.8438 18.14 15.7204 17.192 16.8398 17.0781L17.0664 17.0664H23.7331L23.9596 17.0781C25.0791 17.192 25.9557 18.14 25.9557 19.2891V20.3997Z" fill="white"/>
</svg>
