<svg width="27" height="27" viewBox="0 0 27 27" fill="none" xmlns="http://www.w3.org/2000/svg">
<path d="M23.3333 15.5556C23.3333 14.33 22.3367 13.3333 21.1111 13.3333H18.8889C17.6633 13.3333 16.6667 14.33 16.6667 15.5556C14.8289 15.5556 13.3333 17.0511 13.3333 18.8889V23.3333C13.3333 25.1711 14.8289 26.6667 16.6667 26.6667H23.3333C25.1711 26.6667 26.6667 25.1711 26.6667 23.3333V18.8889C26.6667 17.0511 25.1711 15.5556 23.3333 15.5556ZM18.8889 14.4444H21.1111C21.7244 14.4444 22.2222 14.9422 22.2222 15.5556H17.7778C17.7778 14.9422 18.2756 14.4444 18.8889 14.4444ZM16.6667 16.6667H23.3333C24.5589 16.6667 25.5556 17.6633 25.5556 18.8889V20H14.4444V18.8889C14.4444 17.6633 15.4411 16.6667 16.6667 16.6667ZM23.3333 25.5556H16.6667C15.4411 25.5556 14.4444 24.5589 14.4444 23.3333V21.1111H19.4444V22.7778C19.4444 23.0844 19.6933 23.3333 20 23.3333C20.3067 23.3333 20.5556 23.0844 20.5556 22.7778V21.1111H25.5556V23.3333C25.5556 24.5589 24.5589 25.5556 23.3333 25.5556ZM11.1111 26.1111C11.1111 26.4178 10.8622 26.6667 10.5556 26.6667H5C2.24333 26.6667 0 24.4233 0 21.6667V5C0 2.24333 2.24333 0 5 0H12.7778C15.5344 0 17.7778 2.24333 17.7778 5V10.5556C17.7778 10.8622 17.5289 11.1111 17.2222 11.1111C16.9156 11.1111 16.6667 10.8622 16.6667 10.5556V5C16.6667 2.85556 14.9222 1.11111 12.7778 1.11111H5C2.85556 1.11111 1.11111 2.85556 1.11111 5V21.6667C1.11111 23.8111 2.85556 25.5556 5 25.5556H10.5556C10.8622 25.5556 11.1111 25.8044 11.1111 26.1111ZM7.77778 15C7.77778 15.3067 7.52889 15.5556 7.22222 15.5556H5C4.69333 15.5556 4.44444 15.3067 4.44444 15C4.44444 14.6933 4.69333 14.4444 5 14.4444H7.22222C7.52889 14.4444 7.77778 14.6933 7.77778 15ZM13.3333 15C13.3333 15.3067 13.0844 15.5556 12.7778 15.5556H10.5556C10.2489 15.5556 10 15.3067 10 15C10 14.6933 10.2489 14.4444 10.5556 14.4444H12.7778C13.0844 14.4444 13.3333 14.6933 13.3333 15ZM7.77778 19.4444C7.77778 19.7511 7.52889 20 7.22222 20H5C4.69333 20 4.44444 19.7511 4.44444 19.4444C4.44444 19.1378 4.69333 18.8889 5 18.8889H7.22222C7.52889 18.8889 7.77778 19.1378 7.77778 19.4444ZM7.77778 6.11111C7.77778 6.41778 7.52889 6.66667 7.22222 6.66667H5C4.69333 6.66667 4.44444 6.41778 4.44444 6.11111C4.44444 5.80444 4.69333 5.55555 5 5.55555H7.22222C7.52889 5.55555 7.77778 5.80444 7.77778 6.11111ZM13.3333 6.11111C13.3333 6.41778 13.0844 6.66667 12.7778 6.66667H10.5556C10.2489 6.66667 10 6.41778 10 6.11111C10 5.80444 10.2489 5.55555 10.5556 5.55555H12.7778C13.0844 5.55555 13.3333 5.80444 13.3333 6.11111ZM7.77778 10.5556C7.77778 10.8622 7.52889 11.1111 7.22222 11.1111H5C4.69333 11.1111 4.44444 10.8622 4.44444 10.5556C4.44444 10.2489 4.69333 10 5 10H7.22222C7.52889 10 7.77778 10.2489 7.77778 10.5556ZM13.3333 10.5556C13.3333 10.8622 13.0844 11.1111 12.7778 11.1111H10.5556C10.2489 11.1111 10 10.8622 10 10.5556C10 10.2489 10.2489 10 10.5556 10H12.7778C13.0844 10 13.3333 10.2489 13.3333 10.5556Z" fill="white"/>
</svg>
